Coordinates
version=1
nRows=14
nColumns=40
inDegrees=yes

Units are S.I. units (second, meters, Newtons, ...)
If the header above contains a line with 'inDegrees', this indicates whether rotational values are in degrees (yes) or radians (no).

endheader
time	pelvis_tilt	pelvis_list	pelvis_rotation	pelvis_tx	pelvis_ty	pelvis_tz	hip_flexion_r	hip_adduction_r	hip_rotation_r	knee_angle_r	knee_angle_r_beta	ankle_angle_r	subtalar_angle_r	mtp_angle_r	hip_flexion_l	hip_adduction_l	hip_rotation_l	knee_angle_l	knee_angle_l_beta	ankle_angle_l	subtalar_angle_l	mtp_angle_l	lumbar_extension	lumbar_bending	lumbar_rotation	arm_flex_r	arm_add_r	arm_rot_r	elbow_flex_r	pro_sup_r	wrist_flex_r	wrist_dev_r	arm_flex_l	arm_add_l	arm_rot_l	elbow_flex_l	pro_sup_l	wrist_flex_l	wrist_dev_l
      4.87500000	    -32.55509420	     -2.12005030	     -1.68287114	     -0.45809648	      0.68913086	     -0.92146997	     86.93240131	    -10.53757299	      2.81844854	     91.66698085	      1.59989063	     36.00903812	      0.00000000	      0.00000000	     90.39159505	    -18.95064430	      7.74493837	     90.53571741	      1.58014636	     32.94012619	      0.00000000	      0.00000000	    -19.26431065	      1.10686971	      4.28394376	     14.54328363	    -54.82062267	     79.48863665	     93.13467060	     86.50031563	      0.00000000	      0.00000000	    -17.85407462	    -47.72634892	     36.36788721	     98.06482459	     87.59009018	      0.00000000	      0.00000000
      4.88000000	    -32.58682273	     -2.18537482	     -1.65457538	     -0.45814154	      0.68915955	     -0.92153927	     86.92689359	    -10.53514595	      2.75875744	     91.65210192	      1.59963094	     36.05731533	      0.00000000	      0.00000000	     90.45956594	    -18.91542460	      7.83578450	     90.51363093	      1.57976088	     32.91110551	      0.00000000	      0.00000000	    -19.21848127	      1.16837184	      4.59591346	     13.70605720	    -54.90919950	     78.62936617	     93.11523545	     86.25745516	      0.00000000	      0.00000000	    -17.06474784	    -47.90477081	     37.23618828	     97.98096761	     87.66765608	      0.00000000	      0.00000000
      4.88500000	    -32.57709311	     -2.23639056	     -1.64774377	     -0.45815170	      0.68928332	     -0.92157058	     86.88770915	    -10.54159433	      2.68101279	     91.62262200	      1.59911642	     35.99621937	      0.00000000	      0.00000000	     90.46933724	    -18.94046870	      7.85527093	     90.51240307	      1.57973945	     32.85580329	      0.00000000	      0.00000000	    -19.28430875	      1.21039273	      4.43378069	     14.05347855	    -54.87942556	     78.91819295	     93.15630161	     86.53874408	      0.00000000	      0.00000000	    -17.51518423	    -47.81374012	     36.83109928	     98.06920776	     87.58759098	      0.00000000	      0.00000000
      4.89000000	    -32.62253821	     -2.25172728	     -1.60555239	     -0.45830445	      0.68927601	     -0.92178542	     86.93968242	    -10.59008868	      2.67715215	     91.61361774	      1.59895927	     35.97975357	      0.00000000	      0.00000000	     90.52468503	    -18.87829737	      7.86702494	     90.48911156	      1.57933293	     32.81318704	      0.00000000	      0.00000000	    -19.24622482	      1.22945263	      4.57374389	     13.65661434	    -54.96283328	     78.54176095	     93.19419140	     86.53994063	      0.00000000	      0.00000000	    -17.07193134	    -47.92418857	     37.27650901	     98.04259034	     87.56872909	      0.00000000	      0.00000000
      4.89500000	    -32.65492125	     -2.31833247	     -1.59395373	     -0.45833038	      0.68927761	     -0.92182114	     86.93067902	    -10.58866403	      2.59190333	     91.56014276	      1.59802595	     36.04468233	      0.00000000	      0.00000000	     90.58142045	    -18.87857741	      7.93281675	     90.47286710	      1.57904941	     32.88084552	      0.00000000	      0.00000000	    -19.21559908	      1.29178663	      4.79114259	     13.18208263	    -55.04526952	     78.13364764	     93.26735590	     85.80138724	      0.00000000	      0.00000000	    -16.54219794	    -48.06938319	     37.92345054	     97.98085316	     87.72591414	      0.00000000	      0.00000000
      4.90000000	    -32.66288495	     -2.31419985	     -1.61215001	     -0.45837196	      0.68931333	     -0.92183129	     86.93531444	    -10.56368711	      2.61456079	     91.54430078	      1.59774946	     36.02122583	      0.00000000	      0.00000000	     90.59000954	    -18.91852941	      7.89805136	     90.49866704	      1.57949971	     32.85843557	      0.00000000	      0.00000000	    -19.26374852	      1.26414043	      4.52777847	     13.72266575	    -54.95114741	     78.57560046	     93.23952403	     86.60670013	      0.00000000	      0.00000000	    -17.43487667	    -47.86028457	     36.85115076	     98.13955880	     87.57693374	      0.00000000	      0.00000000
      4.90500000	    -32.82287741	     -2.45042670	     -1.57582055	     -0.45859870	      0.68902661	     -0.92193061	     87.08010572	    -10.57961075	      2.47597556	     91.56712549	      1.59814783	     35.94729167	      0.00000000	      0.00000000	     90.86535579	    -18.87913517	      8.06896692	     90.47937475	      1.57916299	     32.68393767	      0.00000000	      0.00000000	    -19.05778849	      1.41489200	      4.82055568	     13.05075254	    -55.07649182	     78.01459506	     93.22754035	     86.32337302	      0.00000000	      0.00000000	    -16.71203434	    -47.93986121	     37.68980253	     97.96252626	     87.67777197	      0.00000000	      0.00000000
      4.91000000	    -32.74226689	     -2.26180668	     -1.56639930	     -0.45856889	      0.68931249	     -0.92205933	     87.04618937	    -10.62744699	      2.68162490	     91.53732511	      1.59762771	     35.95684756	      0.00000000	      0.00000000	     90.64496695	    -18.85506799	      7.81845351	     90.43322474	      1.57835752	     32.83005030	      0.00000000	      0.00000000	    -19.19300146	      1.21498797	      4.33073432	     14.15892889	    -54.88194601	     79.11474500	     93.17664858	     86.46579476	      0.00000000	      0.00000000	    -17.62352584	    -47.80429685	     36.69637537	     98.08589831	     87.60349330	      0.00000000	      0.00000000
      4.91500000	    -32.80993635	     -2.43373755	     -1.57090570	     -0.45867330	      0.68914618	     -0.92203604	     87.05514137	    -10.57892358	      2.50854620	     91.51285166	      1.59720057	     35.97727444	      0.00000000	      0.00000000	     90.82603544	    -18.91573920	      7.97434671	     90.45203379	      1.57868580	     32.70827507	      0.00000000	      0.00000000	    -19.13560145	      1.39377181	      4.32999985	     14.31698530	    -54.94827861	     79.28405113	     93.30138469	     86.57006517	      0.00000000	      0.00000000	    -17.74322045	    -47.76575013	     36.64334163	     98.09849661	     87.58585472	      0.00000000	      0.00000000
      4.92000000	    -32.85121102	     -2.45913905	     -1.55020732	     -0.45872878	      0.68919850	     -0.92210480	     87.08814342	    -10.59546927	      2.48284666	     91.49296872	      1.59685355	     35.98204706	      0.00000000	      0.00000000	     90.87743008	    -18.88624332	      8.00590760	     90.43178901	      1.57833247	     32.70939592	      0.00000000	      0.00000000	    -19.11959643	      1.41447604	      4.33395340	     14.23436294	    -54.91006466	     79.21015295	     93.20873491	     86.43276021	      0.00000000	      0.00000000	    -17.78426172	    -47.74204883	     36.55470682	     98.08641233	     87.61402323	      0.00000000	      0.00000000
      4.92500000	    -32.81606372	     -2.34450105	     -1.55221263	     -0.45876043	      0.68953054	     -0.92229043	     87.06906551	    -10.62535125	      2.61475615	     91.44199930	      1.59596396	     35.85492785	      0.00000000	      0.00000000	     90.75569327	    -18.88144258	      7.82810999	     90.36458920	      1.57715961	     32.65536453	      0.00000000	      0.00000000	    -19.18453819	      1.28670164	      4.69324710	     13.30786433	    -55.07555640	     78.25153843	     93.22019383	     86.05300502	      0.00000000	      0.00000000	    -16.78245462	    -47.95688665	     37.60383339	     97.94088056	     87.73113439	      0.00000000	      0.00000000
      4.93000000	    -32.85238867	     -2.47323124	     -1.53865317	     -0.45883245	      0.68939162	     -0.92230592	     87.07499519	    -10.62446508	      2.45182641	     91.44291047	      1.59597987	     35.93435275	      0.00000000	      0.00000000	     90.87082422	    -18.87146075	      8.00105029	     90.39114061	      1.57762302	     32.72189792	      0.00000000	      0.00000000	    -19.18848500	      1.40234971	      4.97223812	     12.47047710	    -55.16580088	     77.37465804	     93.32802754	     84.94652058	      0.00000000	      0.00000000	    -16.34343290	    -48.04801298	     38.10055031	     97.99528459	     87.85894773	      0.00000000	      0.00000000
      4.93500000	    -32.90623827	     -2.51045801	     -1.52208548	     -0.45892939	      0.68940351	     -0.92238263	     87.10722281	    -10.62126276	      2.44662795	     91.40986604	      1.59540313	     35.90786853	      0.00000000	      0.00000000	     90.93777912	    -18.87216226	      8.01178887	     90.35772050	      1.57703973	     32.71780692	      0.00000000	      0.00000000	    -19.11735286	      1.45370624	      5.06217193	     12.48076191	    -55.18898889	     77.45473388	     93.35897194	     85.38199541	      0.00000000	      0.00000000	    -15.89185787	    -48.16286093	     38.74205328	     97.84686520	     87.74661009	      0.00000000	      0.00000000
      4.94000000	    -32.91992528	     -2.48626697	     -1.54594571	     -0.45900582	      0.68937810	     -0.92232720	     87.13224040	    -10.60513839	      2.45784208	     91.40685412	      1.59535056	     35.92058285	      0.00000000	      0.00000000	     90.94824893	    -18.90097139	      7.97167340	     90.36455385	      1.57715899	     32.65272027	      0.00000000	      0.00000000	    -19.15670738	      1.40843860	      4.32173373	     14.37711904	    -54.91955850	     79.35409245	     93.21572310	     86.44041923	      0.00000000	      0.00000000	    -17.78051637	    -47.75918017	     36.55998971	     98.09835547	     87.61114805	      0.00000000	      0.00000000
